<svg id="09f9c472-77bf-4112-aae3-d5491a3a9448" data-name="Layer 2" xmlns="http://www.w3.org/2000/svg" viewBox="0 0 627.67 399.32"><defs><style>.\37 ec9da45-49b5-43bf-96f2-3898abbc33a0{fill:#fff;}.\39 762fb55-409d-4e62-9826-7dcaab7c8182{fill:#00b1e4;fill-rule:evenodd;}</style></defs><title>Untitled-1</title><path class="7ec9da45-49b5-43bf-96f2-3898abbc33a0" d="M521.35,399.32l-0.69-8.87a7.06,7.06,0,0,1,0-1.51l-1.19-3.57c-2.26-6.77-3.65-7.38-4.62-7.17l-3.68.84-1.81-3.31a35.5,35.5,0,0,1-1.83-4.08l-0.07-.17a7.77,7.77,0,0,1-2.1-.33l-2.13-.62-1-2a54.33,54.33,0,0,0-8.3-12.78l-1.39-1.54,0.1-1.92c-2.86-3.82-2.6-9-2.39-13.22,0.1-2.07.25-5-.23-6.46-5-1.19-7.82-4.44-10-6.91-1.85-2.11-3-3.44-5.09-3.83-3.14,4.36-9.53,6.45-15.3,6.93l-3.28.27-1.55-2.91c-4.5-8.45-21.25-4.06-28.24-1.78l-1.14-3a6.54,6.54,0,0,1-.65.64l-1.31,1.13-1.73.07c-1.31.06-2.57,0.09-3.79,0.12-2.43.06-4.33,0.13-5.85,0.3a10.26,10.26,0,0,1-.53,5.7,9.59,9.59,0,0,1,4.93,3.38l1.2,1.65-0.29,2a7.42,7.42,0,0,1-7,6.46,14.79,14.79,0,0,1-7.84-2,9.42,9.42,0,0,1-5.4,3.77l-1.44.45-1.45-.43A6.14,6.14,0,0,1,393,344l-1.19.89-1.78-.08a17.49,17.49,0,0,1-7.91-2.43c-0.55-.29-1.07-0.56-1.55-0.77l-2.78-1.21-0.13-1.86h-0.71a81.86,81.86,0,0,1-10.46-1c-8.56-1.21-18.24-2.58-23.78,1.8-6.71,7.18-15.39,12-23.78,16.75-3.68,2.06-7.18,4-10.5,6.15-0.87,9.48-1,17.05.81,24.57l1.83,7.72-7.76-1.68c-11.25-2.43-34.06-7.37-32.86-27a29.7,29.7,0,0,1-4.23-5.25c-1.34-2-2.49-3.65-4-4.42L260,355l-0.42-2.43c-2.2-12.75-8.4-19.41-19.51-20.91-1.1.22-1.66,1-3.15,4-1.26,2.54-2.82,5.71-6,7.74l-2.79,1.76-2.72-1.88a45.59,45.59,0,0,0-5.79-3.15c-5.53-2.69-12.41-6-14.36-13.67a42,42,0,0,1-1-6.15c-0.3-2.83-.5-4.34-1.48-5.68-6.38-3.25-10.3-8.7-13.77-13.53-0.6-.83-1.18-1.64-1.76-2.42-5.13-.43-9.91-1.17-14.55-1.93-0.07.68-.14,1.36-0.23,2l-0.7,4.81-4.83-.57c-19.36-2.28-36.08-4.25-50.12-12.51-3.7-2.18-7.48-4.59-11.14-6.92a214.21,214.21,0,0,0-19.95-11.73l-2-1-0.59-2.19v0c-2.06-.27-4.2-0.5-6.41-0.74-6.55-.7-13.32-1.43-19.07-3.49l-3.5-1.25,0.19-3.71C55,246.71,49.88,245.54,47.7,245l-1.42-.33-1-1a6.36,6.36,0,0,1-1.94-4.13,32.82,32.82,0,0,1-6.41-5.65c-3.19-3.38-5.29-5.59-10.29-5.46l-2.54.07-1.56-2c-3.32-4.3-1.74-8.42-.88-10.63A6.85,6.85,0,0,0,22.2,214c-0.19-2.6-2-5.68-3.94-8.94-2.65-4.49-5.66-9.57-5.85-15.69v-0.36l0-.35A7.7,7.7,0,0,1,14,184.83a18.54,18.54,0,0,1-3.22-6.52,16.42,16.42,0,0,1,.06-9c-1.92-2.58-2.4-5.15-2.6-9.11C8.16,159,6.82,157,5.74,155.36c-1.42-2.15-2.77-4.19-3.07-6.6-0.41-3.3.46-6.61,1.23-9.53,1.54-5.85,1.29-6.75-.34-7.78L0,129.19l1.62-3.89a55.4,55.4,0,0,1,4-7.34c4-6.58,6.33-11,4.33-16.12L9.44,100.5l0.27-1.41c0.15-.76.31-1.5,0.47-2.24a25.77,25.77,0,0,0,.85-7L10.93,88l1.13-1.45c9-11.63,14.52-27.21,18.72-40.93l0.68-2.22Q31.4,43,31.38,42.59A9.06,9.06,0,0,1,33,37.07a7.07,7.07,0,0,1-.11-4.65L33.25,31,34,30.34c-1.43-5.76-1.17-13.12-.64-19.94l0.57-7.33L40.55,6.3a52.87,52.87,0,0,1,5.93,3.52,29.57,29.57,0,0,0,7.25,3.87,6.65,6.65,0,0,1,1.94-1.61,4.66,4.66,0,0,0-.59-1.4L48.29,0,60.54,3.16c72.56,18.7,160.54,37.55,264,36.16a6.1,6.1,0,0,1,3.55-5.2l0.86-.39,0.94,0c7.78-.41,8.73,7,9,9.47L339,43.7a20.59,20.59,0,0,1,5.28,1.83c4.76-2.37,9.35-.19,12,1.09,1.5,0.71,3,1.45,3.79,1.22l5.26-1.62,1.06,5.17a3.74,3.74,0,0,0,3.43-.86L373.33,47l3.58,3.45c0.75,0.5,4,.76,5.8.9a44.78,44.78,0,0,1,5,.58l7.07,1.39L391,59.42c-2.71,4.41-7,5.79-10.08,6.8a14.79,14.79,0,0,0-3.82,1.6,9.14,9.14,0,0,0-.86.71,7.94,7.94,0,0,1,1.06.31L380.49,70l0,2c1.51-.78,3-1.49,4.54-2.19,1.66-.77,3.24-1.51,4.72-2.3l0.77-1c2.85-3.53,6.75-8.37,14.95-8.47l9.6-.12-5.4,7.93a21,21,0,0,1-1.56,2,12.16,12.16,0,0,1,4.93,4.3c2.5-.19,4.82-1.21,7.76-2.5a41.79,41.79,0,0,1,12.8-3.9l5.55-.62v4.28a15.75,15.75,0,0,1,4.63-.91l5.82-.16-0.72,5.78a9.7,9.7,0,0,0-.07,2.22l29.83,5.29-21.56,3.17L457.6,87l5.42-.62-3.18,7.65a27.13,27.13,0,0,0,.25,3.55,45.69,45.69,0,0,1,.34,5.09l1.55-.19,1.55,1.05c7.74,5.28,9.11,15.43,9.85,25.37l0.43,5.8-5-.39a28.76,28.76,0,0,0-1.07,3c-0.27.84-.55,1.72-0.88,2.6a17.81,17.81,0,0,1,4,1.07c13.56-6.72,22.94-13.55,29.72-21.66a12.49,12.49,0,0,1-2.29-6.46l-0.2-3.39,3.08-1.44c4.94-2.31,10-2.82,14.51-3.26,5.73-.57,9.36-1.06,11.87-3.66,0-.27,0-0.55,0-0.79l-1.84-.64L525,97.14c-1.53-5.72,2.36-8.54,4-9.75a7.84,7.84,0,0,0,1-.76,25.55,25.55,0,0,0,1.88-3.36c1.47-2.93,3.13-6.25,6.45-8.37,2.9-1.85,6-2.1,8.7-2.33a25,25,0,0,0,3.35-.42c3.27-.74,6.74-1.81,10.11-2.84,3.79-1.16,7.68-2.36,11.46-3.15l0-.2a19.44,19.44,0,0,1,.58-2.35l2.6-7.89,2.9,3a22.46,22.46,0,0,1,2.15-4.67c-2.38-9.11,1.7-19,4.47-25.67l1.58-3.85,2.63-.53a6.63,6.63,0,0,1,5.36,1.09c0.45-.45.9-0.89,1.37-1.31l2-1.76,2.57,0.64A15.81,15.81,0,0,1,603.5,24a3.82,3.82,0,0,0,1.78.63l4,0,0.81,3.95a74.13,74.13,0,0,0,2.46,8.53c0.88,2.66,1.79,5.39,2.48,8.39h0.65l5.81,0-0.75,4.85,0.59,0.07,1.32,0.21,1,0.84c4.55,3.67,5.22,9.57,1.72,15A17.41,17.41,0,0,1,618,73c-0.09.43-.22,0.88-0.37,1.35l-0.81,2.5-2.51.76a9.22,9.22,0,0,1-1.05.25,7.69,7.69,0,0,1-5.14,4.61l-0.32.2a18.65,18.65,0,0,0-2.28,1.84,18.14,18.14,0,0,1-6.26,4.06,62,62,0,0,0-1.47,14.35c0,0.18,0,.35,0,0.53l3.12-.06c2.92-.06,9.69.9,10,11.13l0.13,4.59-4.56.53c-1.09.13-1.73,0.62-3.26,2a20.2,20.2,0,0,1-4,3l-0.38-.68-0.45.33c-3.81,2.78-8.29,4.48-12.63,6.12-5.95,2.25-11.57,4.38-13.76,8.8l-0.25.44,0.26,1.43h0l0.24,0.5,0.13,0.54a31.15,31.15,0,0,1-6.67,27.34c2.28,7.6-.06,14.31-2.14,20.27a46.81,46.81,0,0,0-2.29,8l-0.09.6c1.05,2.28,2,4.38,3,6.36l1.1-2.46-0.19,4.21c1,1.83,2,3.55,3.06,5.19l8,12.1-7.79-2.6a11,11,0,0,1-4.2,5.53l-0.09,1.9c-0.32,7-6.15,9.79-10.4,11.85-5.37,2.59-7.23,3.86-7,7.92L546.9,253l-4.64.53c-6.25.71-8.38,3-8.14,8.76l0.13,3-2.61,1.52c-1.63,1-2.94,2.62-4.46,4.55-1.89,2.4-4.15,5.27-7.62,7.19a19.1,19.1,0,0,1-3.77,6.07,12.28,12.28,0,0,0-2.2,3.21c-5.24,15.13,3.57,32,14,41.35l1.11,1,0.38,1.44a6.66,6.66,0,0,1-.26,4.34l0.93,1.53c5.49,9,12.13,19.91,10.51,34.3l1.4,0.61-0.6,3.82c-1.4,8.83-6.83,13.83-12.49,17.91ZM417.43,315.78h0ZM467,150.2h0Z"/><path class="9762fb55-409d-4e62-9826-7dcaab7c8182" d="M620.58,55.41c-2.2-.35-2.73,1.52-4.19,0,0.56-2.42-1-2.68-.7-4.88-1.85,0-4,.26-4.89-0.7-1.16-7.44-4.12-13.08-5.59-20.22-2.76,0-4-1.54-6.28-2.09-1.72,1.54-3.06,3.45-5.58,4.18-2-.13-0.87-3.31-3.49-2.79-2.75,6.73-7.64,17.37-4.19,25.8-1.79,2.86-3.66,5.64-3.49,10.46-2.51-.58-3.38,1.57-4.89,0-0.69,2.1-.52,5.06-2.79,5.58-7.24,1.28-15.32,4.52-23,6.27-3.7.84-7.54,0.23-10.47,2.09-3.39,2.16-4.56,7.13-7,10.46-1.68,2.31-5.15,2.67-4.19,6.27,3.22,1.12,2.62,4.85,2.79,7-6.59,9.48-18.84,4.86-29.32,9.76,0.2,3.29,2.3,4.67,3.49,7-9,12.16-22,20.36-36.3,27.19-2.21-2.9-9.23-1-10.47-4.88,3.63-3.47,2.93-13,8.38-12.55-0.67-9.09-1.87-17.65-7.68-21.61-4.57.55-3.95,6.28-7.68,7.67-2.78.46-2-2.65-2.1-4.88,8-2.06,2.63-14.39,4.19-18.13-1.84.21-1.8-1.46-2.09-2.79-7.52,0-14-8.37-18.15-.7-0.61,2.24,2.3,1,2.09,2.79-2.42-.55-2.95.78-4.19,1.39-0.53,4.24,1.9,7.11-2.1,7.67-1.07-3.35,3-6,0-7-6.41,7-6.76,14.46-7.68,26.49,7.78,7.52,5.47,26.33-4.89,29.28-14.62-13.12-6.43-40.13-2.79-55.08-2.84,3.45-5.76,10.51-9.08,11.16,2.35-6.72,6.6-11.53,8.38-18.82,6,1.52,9.39-3,16.75-4.88,6.2,1,11.69-.05,16.06-0.7-3.16-.56-4-3.43-3.49-7.67-3.73.11-6.51,2.91-9.77,1.39V70.75C424,71.88,418.75,78.42,409.75,77c-1.18-5.65-9.17-6.81-11.17-4.18,1.07-4.51,4.72-6.44,7-9.76-6.9.08-9.33,4.63-12.57,8.37-4.77,2.67-10.32,4.56-14.66,7.67-0.75-2.63-4.14,0-4.89-1.39,0.62-1.47,2.13-2.06,2.09-4.18-3.58-1.32-8.18,5.66-13.26,2.79,5.09-2.82,7.17-9.16,11.87-12.55,3.95-2.85,9.69-2.29,12.57-7C382.6,56,376,56.52,373.45,54c-3.61,3.71-10.9,3.32-11.87-1.39-6,1.84-11.07-6.71-16.76-1.39-2.89-1.06-5-2.87-9.07-2.79-3-2.07-.18-10-5.59-9.76-1.6.72,0.33,5-1.4,5.58C225.38,46.19,138.09,28.31,59.3,8c3.24,5.11.3,11.28,1.4,15.34-3.32-2.64-1.67-4.84-1.4-7-2.81-.48-1.71,2.94-4.19,2.79C47.93,18,44,13.54,38.35,10.79c-0.5,6.5-1.1,17.37,2.1,22.31a3.93,3.93,0,0,0-2.79.7c-0.75,2.6,1.73,2,1.4,4.18-2.89,1.83-3.92,5.43-.7,7-2.24-.61-1.45,1.81-2.79,2.09C30.71,62.89,25.05,77.92,16,89.57c0.19,4.14-.76,7.14-1.4,10.46,4.18,10.81-5.08,19.3-8.38,27.19,7.88,5,.55,14.18,1.4,20.92C8,151,13,155.45,13.22,160s0.65,5.8,3.49,8.37c-3.69,6-.09,13.72,4.19,16-0.39,2.4-3.21,2.37-3.49,4.88,0.28,9.16,9.18,16.43,9.77,24.4,0.28,3.68-3.34,6.34-.7,9.76,12.21-.35,13.54,10.18,22.34,13.25,0.41,2.22-1.31,2.16,0,3.49,8.13,1.87,11,9,10.47,19.52,8.56,3.07,20.34,2.93,30,4.88,0,1.39-1.9.89-1.4,2.79,11,5.41,21.31,12.88,31.42,18.82,13,7.66,28.4,9.52,48.17,11.85,0.36-2.43.31-5.26,1.4-7a209.15,209.15,0,0,0,20.94,2.79c4.83,6.09,8.52,13.34,16.06,16.73,3.94,4.21,2.69,8.79,4.19,14.64,2,7.74,11.8,9.55,18.15,13.94,5-3.15,4.36-11.92,11.87-12.55,14.78,1.74,22,11,24.43,25.1,5,2.64,6.32,9,11.17,11.85-3.08,17.54,16.71,21.82,28.62,24.4-2.2-9.28-1.72-18.46-.7-28.58,11.78-8,26.14-13.41,35.6-23.7,9.94-8.3,27.44-2.15,37.7-2.09-0.4-3.92-4.67-.12-5.58-2.79,4.38-4,7.86,2.75,11.87,3.49,0.16,1.32-.79,1.54-0.7,2.79,2.43,1.06,4.33,2.65,7.68,2.79,1.73-1.3,2.62-3.42,5.58-3.49,2.31,1.39-1.73,3,0,3.49,5.54-1.72,1.24-5.31,5.59-7,1.05,3.32,10.45,7.74,11.17,2.79-2-2.69-7.74-1.56-9.07-4.88,2.19-1.84,4.95-2.45,3.49-7.67-3.1-.31-1.73,3.85-5.58,2.79,3.11-8.3,10.39-7.25,20.24-7.67,1.38-1.18.26-4.85,2.79-4.88,1.46,1.15,3.38,5.1.7,6.27,11.54-3.76,28.34-6.85,34.21,4.18,6.19-.52,11.82-3.07,12.57-7,12-1.25,11.18,10.21,20.94,11.15,5.85,4.76-.81,17.74,4.89,22.31,1.71-1.95-.54-4.69,0-4.88,1,0.12,2.58-.25,2.79.7,0.29,3.31-2.64,3.41-2.79,6.27a59.54,59.54,0,0,1,9.08,13.94c2,0.58,1.81-1,3.49-.7,1.43,2.29,2.17,5.27,3.49,7.67,6.13-1.4,8.74,5.29,10.47,10.46,2.65-.86,7.22-3.45,9.08-2.79-0.93,4.19-7.92,6-7.68,9.06,4.86-3.51,9.33-7.42,10.47-14.64-2.48-1.08-.42,2.37-2.1,2.09,5.27-18.27-4.81-30.79-11.17-41.83,0-1.39,1.9-.89,1.4-2.79-10.56-9.45-21.71-28.37-15.36-46.71,1.48-4.26,6.2-6.66,6.28-11.15,6.65-2.19,8.38-9.29,14-12.55-0.4-9.23,4.63-13,12.57-13.94-0.62-13.81,17-11.17,17.45-20.22-0.55,1.22-6,2.07-7,0,2.91,2.32,4.87-3.74,2.1-4.88,4.51,1.3,9.35-.73,9.77-5.58-1.12-1.91-4.26,1.63-5.59-.7,2.48,0.16,4.18-.47,4.89-2.09L563,214l1,0.35a108.92,108.92,0,0,1-7.68-14.64c-1.59,0-3.37-.18-4.42.36,2.77-2.3-3.21-5-1.87-6.63,0.7,0,.83.56,1.4,0.7-0.4-5.18-2-9.2-5.59-11.16,1.88,0.48,1.35-1.44,2.09-2.09-4.85-3.1-5.6-16-.7-16.73-3.17,2.92,2,6.4-1.4,9.76,3.13,0,1.15,1,1.4,4.88,3.71,0.24,2.95,5,5.58,6.27,1-2.48-2.24-4.18-.7-4.88,7.33,2.57-1.34,12.77,4.19,16.73,1.39-9,7.85-17.44,4.19-27.19-4.89-1.39-5.59-7-8.38-10.46a10.63,10.63,0,0,0,9.08,4.88c0.29,1.68-1.28,1.52-.7,3.49a25.78,25.78,0,0,0,7-24.4c-0.83-1.72-2.64,1.43-3.49-.7,1.42-.2,1.37-1.89,2.79-2.09l-0.35-1.88,1-1.6c4.93-9.95,19.32-10.46,27.93-16.73,0.87-2.09-.33-3.49,2.79-4.18,0.4,2.26-.21,3.51-1.4,4.18,3.17-1.71,4.69-5.07,9.08-5.58-0.1-3.61-1.08-6.35-4.89-6.27,0.33,2.23,3.58,1.54,3.49,4.18-6,5.34-7.27-6.49-11.87-4.88,0.43-6.15-.36-14.57,2.79-23.7,3.89,0.67,6.5-3.57,9.77-5.58,0.51-2.42-.76-6.61,0-7,0.82,1,2.9.82,2.79,2.79-1.65,1.05-2.58,1.06-1.4,3.49,3.51-.84,1.89-5.62,4.19-7.67-0.2,1.82-.24,3.49,2.09,2.79,1.32-4.11-.84-1.95-1.4-4.18,5.26,2.6,15.54-8,9.08-13.25"/><path class="7ec9da45-49b5-43bf-96f2-3898abbc33a0" d="M90.6,146.9l20.34-28H126v29.05h4.42q0.13,1.43.19,2.7t0.07,2.57q0,1.3-.07,2.5t-0.19,2.57H126v6.83H110.95v-6.83H90.6V146.9Zm20.34,1V136.76l-8,11.18h8Z"/><path class="7ec9da45-49b5-43bf-96f2-3898abbc33a0" d="M168.21,131.11a26.44,26.44,0,0,0-4.52-1.62,19.66,19.66,0,0,0-5.17-.71,9.3,9.3,0,0,0-6.11,1.79,7.29,7.29,0,0,0-2.54,4.91,8.69,8.69,0,0,1,.81-0.68,7.71,7.71,0,0,1,1.5-.85,11.81,11.81,0,0,1,2.27-.71,15.27,15.27,0,0,1,3.22-.29,14.7,14.7,0,0,1,4.68.78,11.09,11.09,0,0,1,4.23,2.6,13.28,13.28,0,0,1,3.06,4.84,20.72,20.72,0,0,1,1.17,7.44q0,8.26-4.81,13t-14,4.71a21.56,21.56,0,0,1-9.2-1.75,15.73,15.73,0,0,1-6-4.84,19.64,19.64,0,0,1-3.31-7.31,39.12,39.12,0,0,1-1-9.1,38.41,38.41,0,0,1,.46-5.79,29.73,29.73,0,0,1,1.5-5.82,24.6,24.6,0,0,1,2.76-5.36,19.44,19.44,0,0,1,4.19-4.45,19.23,19.23,0,0,1,5.82-3,24.57,24.57,0,0,1,7.7-1.1,43.71,43.71,0,0,1,7.44.55,27.8,27.8,0,0,1,5.95,1.72v11.12Zm-16.19,24a3.21,3.21,0,0,0,2.6-1.17q1-1.17,1-4.29a8.68,8.68,0,0,0-.88-4.42,3.07,3.07,0,0,0-2.83-1.43,3.12,3.12,0,0,0-2.76,1.4,8.3,8.3,0,0,0-.94,4.52,7,7,0,0,0,.94,4.16A3.41,3.41,0,0,0,152,155.16Z"/><path class="7ec9da45-49b5-43bf-96f2-3898abbc33a0" d="M192.91,166.27a20.74,20.74,0,0,1-10.11-2.18,16.94,16.94,0,0,1-6.17-5.65,22,22,0,0,1-3.09-7.83,45.57,45.57,0,0,1-.85-8.71,44.74,44.74,0,0,1,.85-8.61,22,22,0,0,1,3.09-7.8,16.69,16.69,0,0,1,6.17-5.62,24.89,24.89,0,0,1,20.22,0,17,17,0,0,1,6.21,5.62,21.71,21.71,0,0,1,3.12,7.8,44.82,44.82,0,0,1,.85,8.61,48.64,48.64,0,0,1-.36,5.82,29.77,29.77,0,0,1-1.24,5.66,22.58,22.58,0,0,1-2.37,5.07,15.64,15.64,0,0,1-3.74,4.09,17.57,17.57,0,0,1-5.36,2.73A23.49,23.49,0,0,1,192.91,166.27Zm0-11.89a3.11,3.11,0,0,0,1.46-.36,2.93,2.93,0,0,0,1.17-1.62,16.4,16.4,0,0,0,.78-3.74,60.58,60.58,0,0,0,.29-6.76,62.46,62.46,0,0,0-.29-6.83,17.84,17.84,0,0,0-.78-3.87,3.35,3.35,0,0,0-1.17-1.75,2.74,2.74,0,0,0-2.93,0,3.35,3.35,0,0,0-1.17,1.75,17.84,17.84,0,0,0-.78,3.87,62.46,62.46,0,0,0-.29,6.83,60.58,60.58,0,0,0,.29,6.76,16.4,16.4,0,0,0,.78,3.74,2.93,2.93,0,0,0,1.17,1.63A3.11,3.11,0,0,0,192.91,154.38Z"/><path class="7ec9da45-49b5-43bf-96f2-3898abbc33a0" d="M226.26,147.75H215.53V135.2h10.66v-12h13.65v12H250.5v12.54H239.91v11.9H226.26v-11.9Z"/><path class="7ec9da45-49b5-43bf-96f2-3898abbc33a0" d="M269.09,129.42h-3q-0.13-1.5-.19-2.93t-0.06-2.92q0-1.49.06-2.92t0.19-2.92h22.42q0.13,1.5.2,2.92t0.06,2.92q0,1.5-.06,2.92t-0.2,2.93h-3.64v18.52a7.64,7.64,0,0,0,.46,2.83,4.84,4.84,0,0,0,1.2,1.82,4.42,4.42,0,0,0,1.69,1,6.44,6.44,0,0,0,3.83,0,4.44,4.44,0,0,0,1.69-1,4.87,4.87,0,0,0,1.2-1.82,7.66,7.66,0,0,0,.46-2.83V129.42h-3.64q-0.13-1.5-.19-2.93t-0.06-2.92q0-1.49.06-2.92t0.19-2.92H314.2q0.13,1.5.19,2.92t0.06,2.92q0,1.5-.06,2.92t-0.19,2.93h-3v18.92q0,8.65-5.49,13.29t-15.57,4.65q-10.08,0-15.57-4.58t-5.49-13.36V129.42Z"/><path class="7ec9da45-49b5-43bf-96f2-3898abbc33a0" d="M315.7,147.94q1.69-.13,3.41-0.2t3.41-.06q1.69,0,3.44.06t3.45,0.2v1.3a3.8,3.8,0,0,0,2.21,3.22,12.14,12.14,0,0,0,6.24,1.33,5.77,5.77,0,0,0,3.12-.65,2,2,0,0,0,1-1.75q0-2.08-2.86-2.86l-12.35-3.18q-5.53-1.43-8.22-4.81a13.42,13.42,0,0,1-2.7-8.64,14.34,14.34,0,0,1,1.53-6.79,14,14,0,0,1,4-4.75,17.32,17.32,0,0,1,5.59-2.76,22.2,22.2,0,0,1,6.24-.91,24.45,24.45,0,0,1,6.34.71,15.52,15.52,0,0,1,4.26,1.75v-1.43q1.49-.13,3-0.2t3-.06q1.49,0,3,.06t3,0.2v15.47q-1.69.13-3.44,0.2t-3.44.06q-1.69,0-3.41-.06t-3.41-.2v-0.78a3.36,3.36,0,0,0-1.69-2.7,7.84,7.84,0,0,0-4.62-1.2q-2.73,0-3.64.84a2.42,2.42,0,0,0-.91,1.75,1.68,1.68,0,0,0,.36,1,2.82,2.82,0,0,0,1.53.81l12.09,2.92a18.84,18.84,0,0,1,6.56,2.73,14.16,14.16,0,0,1,3.8,3.83,12.16,12.16,0,0,1,1.76,4.35,24.19,24.19,0,0,1,.42,4.42,14,14,0,0,1-1.82,7.57,13.52,13.52,0,0,1-4.55,4.52,17.72,17.72,0,0,1-5.88,2.21,32,32,0,0,1-5.82.58,28.68,28.68,0,0,1-6.86-.68,22.08,22.08,0,0,1-4.71-1.72v1.43q-1.56.13-3.12,0.2t-3.05.06q-1.56,0-3.09-.06t-3-.2V147.94Z"/><path class="7ec9da45-49b5-43bf-96f2-3898abbc33a0" d="M118.49,189a6.58,6.58,0,0,0-1.17-4.19,4.23,4.23,0,0,0-3.51-1.46q-6.89,0-6.89,11.44a17.9,17.9,0,0,0,.71,5.46,8.4,8.4,0,0,0,2.15,3.58,8.49,8.49,0,0,0,3.48,2,16.32,16.32,0,0,0,4.71.62,22.36,22.36,0,0,0,5.14-.55,23.39,23.39,0,0,0,4.16-1.37,20.52,20.52,0,0,0,3.12-1.69q1.3-.88,2-1.46v15.54l-2,.94a21.8,21.8,0,0,1-3.38,1.2,43.42,43.42,0,0,1-5,1,45,45,0,0,1-6.83.46q-12.22,0-18.52-6.5t-6.31-18.27a32.55,32.55,0,0,1,1.53-10.27,23.65,23.65,0,0,1,4.29-7.9,18.63,18.63,0,0,1,6.63-5,20.44,20.44,0,0,1,8.55-1.75,16.51,16.51,0,0,1,6,.88,22.32,22.32,0,0,1,3.38,1.66V172q1.49-.13,3-0.2t3-.06q1.49,0,3,.06t3,0.2v22.23q-1.82.13-3.61,0.2t-3.54.07q-1.82,0-3.58-.07t-3.51-.2V189Z"/><path class="7ec9da45-49b5-43bf-96f2-3898abbc33a0" d="M138.51,207.64v-24h-3q-0.13-1.5-.19-2.93t-0.06-2.92q0-1.49.06-2.92t0.19-2.92h21.77q0.13,1.5.2,2.92t0.06,2.92q0,1.5-.06,2.92t-0.2,2.93h-3v24h3q0.13,1.5.2,2.92t0.06,2.93q0,1.5-.06,2.92t-0.2,2.92H135.52q-0.13-1.49-.19-2.92t-0.06-2.92q0-1.5.06-2.93t0.19-2.92h3Z"/><path class="7ec9da45-49b5-43bf-96f2-3898abbc33a0" d="M176.14,207.64v-24h-3.31v5.72q-1.69.13-3.25,0.2t-3.12.06q-1.56,0-3.12-.06t-3.25-.2V172H208v17.42q-1.69.13-3.25,0.2t-3.12.06q-1.56,0-3.12-.06t-3.25-.2v-5.72h-3.31v24h3.77q0.13,1.5.2,2.92t0.06,2.93q0,1.5-.06,2.92t-0.2,2.92H172.37q-0.13-1.49-.19-2.92t-0.06-2.92q0-1.5.06-2.93t0.19-2.92h3.77Z"/><path class="7ec9da45-49b5-43bf-96f2-3898abbc33a0" d="M213.78,207.64v-24h-3q-0.13-1.5-.19-2.93t-0.06-2.92q0-1.49.06-2.92t0.19-2.92h21.77q0.13,1.5.2,2.92t0.06,2.92q0,1.5-.06,2.92t-0.2,2.93h-3v24h3q0.13,1.5.2,2.92t0.06,2.93q0,1.5-.06,2.92t-0.2,2.92H210.79q-0.13-1.49-.19-2.92t-0.06-2.92q0-1.5.06-2.93t0.19-2.92h3Z"/><path class="7ec9da45-49b5-43bf-96f2-3898abbc33a0" d="M238.61,207.64v-24h-3q-0.13-1.5-.19-2.93t-0.06-2.92q0-1.49.06-2.92t0.19-2.92H276.5v14.5q-1.75.13-3.51,0.19t-3.51.07q-1.76,0-3.51-.07t-3.51-.19v-2.73H254.4v5.4h15.47q0.13,1.56.2,3.12t0.06,3.06q0,1.56-.06,3.09t-0.2,3H254.4v5.79h8.38v-3q3.12-.2,6.37-0.2,1.95,0,3.87.06t3.87,0.2v15.08H235.62q-0.13-1.49-.19-2.92t-0.06-2.92q0-1.5.06-2.93t0.19-2.92h3Z"/><path class="7ec9da45-49b5-43bf-96f2-3898abbc33a0" d="M279.15,202.18q1.69-.13,3.41-0.2t3.41-.06q1.69,0,3.44.06t3.45,0.2v1.3a3.8,3.8,0,0,0,2.21,3.22,12.14,12.14,0,0,0,6.24,1.33,5.77,5.77,0,0,0,3.12-.65,2,2,0,0,0,1-1.75q0-2.08-2.86-2.86l-12.35-3.18q-5.53-1.43-8.22-4.81a13.42,13.42,0,0,1-2.7-8.64,14.34,14.34,0,0,1,1.53-6.79,14,14,0,0,1,4-4.75,17.32,17.32,0,0,1,5.59-2.76,22.2,22.2,0,0,1,6.24-.91,24.45,24.45,0,0,1,6.34.71,15.52,15.52,0,0,1,4.26,1.75V172q1.49-.13,3-0.2t3-.06q1.49,0,3,.06t3,0.2v15.47q-1.69.13-3.44,0.2t-3.44.06q-1.69,0-3.41-.06t-3.41-.2v-0.78a3.36,3.36,0,0,0-1.69-2.7,7.84,7.84,0,0,0-4.62-1.2q-2.73,0-3.64.84a2.42,2.42,0,0,0-.91,1.75,1.68,1.68,0,0,0,.36,1,2.82,2.82,0,0,0,1.53.81l12.09,2.92a18.84,18.84,0,0,1,6.56,2.73,14.16,14.16,0,0,1,3.8,3.83,12.16,12.16,0,0,1,1.76,4.35,24.24,24.24,0,0,1,.42,4.42,14.05,14.05,0,0,1-1.82,7.57,13.52,13.52,0,0,1-4.55,4.52,17.72,17.72,0,0,1-5.88,2.21,32,32,0,0,1-5.82.58,28.68,28.68,0,0,1-6.86-.68,22.08,22.08,0,0,1-4.71-1.72v1.43q-1.56.13-3.12,0.2t-3.05.06q-1.56,0-3.09-.06t-3-.2V202.18Z"/></svg>